<svg width="22" height="28" viewBox="0 0 22 28" fill="none" xmlns="http://www.w3.org/2000/svg">
<path d="M9.99119 2.43302H11.0215H11.0287H12.0545L11.6585 2.93932C14.6965 6.93826 16.3149 11.8158 16.2553 16.8185V17.7331L17.0454 18.2139C17.0455 18.2139 17.0456 18.2139 17.0456 18.214C18.4798 19.0822 19.5511 20.43 20.0624 22.0132L20.539 23.489L19.2902 22.5695C18.8909 22.2755 18.4732 22.0066 18.0394 21.7644L18.0385 21.7638L15.9146 20.5713L15.5332 22.9769C15.5331 22.9772 15.5331 22.9774 15.5331 22.9777C15.4876 23.2703 15.4266 23.5603 15.3504 23.8465L15.2516 24.218H14.8672H7.16151H6.79828L6.68599 23.8725C6.56574 23.5026 6.46904 23.1357 6.38108 22.7604L6.37962 22.7542L6.37966 22.7542L5.90139 20.5893L3.95372 21.6726C3.95357 21.6727 3.95342 21.6728 3.95327 21.6728C3.54698 21.9001 3.15476 22.1507 2.77864 22.4235L1.51892 23.3372L2.0107 21.8608C2.53042 20.3004 3.5764 18.964 4.97284 18.0723L9.99119 2.43302ZM9.99119 2.43302L10.3917 2.94144C7.37957 6.93133 5.74099 11.7702 5.72336 16.7503V16.7521V17.5923L4.97317 18.0721L9.99119 2.43302ZM10.8784 0.575855L10.9191 0.540187C10.9477 0.515998 10.9849 0.501327 11.0248 0.500084C11.0475 0.5008 11.0696 0.505878 11.0899 0.514853C11.1117 0.524476 11.1306 0.538233 11.1456 0.554782L11.1473 0.556608C15.2398 5.01687 17.4731 10.8306 17.4037 16.8379L17.4004 17.1225L17.6435 17.2706C19.326 18.2963 20.5716 19.8868 21.1514 21.7455C21.6236 23.2593 21.6285 24.8686 21.1783 26.3728C20.2733 24.8705 18.9839 23.6206 17.4315 22.7528L16.7988 22.399L16.6929 23.1162C16.5893 23.818 16.3984 24.5049 16.1245 25.1611L16.1179 25.177L16.1124 25.1934C16.0865 25.2698 16.0547 25.3167 16.0335 25.3402H6.14767C6.10834 25.3395 6.07114 25.3262 6.04162 25.3036C6.01183 25.2808 5.99183 25.2501 5.98298 25.2171L5.97494 25.1871L5.96324 25.1584C5.67607 24.4519 5.44454 23.7247 5.2707 22.9834L5.11878 22.3355L4.53878 22.6617C2.99921 23.5277 1.71777 24.7672 0.811736 26.255C0.401128 24.7564 0.425674 23.1665 0.894429 21.6691C1.47414 19.8172 2.69696 18.223 4.35123 17.1664L4.58107 17.0196L4.58208 16.7469C4.60416 10.7813 6.84331 5.02917 10.8784 0.575855Z" fill="#4EA8DE" stroke="black"/>
</svg>
